<?xml version="1.0" standalone="no"?>
<!DOCTYPE svg PUBLIC "-//W3C//DTD SVG 20010904//EN"
 "http://www.w3.org/TR/2001/REC-SVG-20010904/DTD/svg10.dtd">
<svg version="1.0" xmlns="http://www.w3.org/2000/svg"
 width="437.000000pt" height="421.000000pt" viewBox="0 0 437.000000 421.000000"
 preserveAspectRatio="xMidYMid meet">
<metadata>
Created by potrace 1.15, written by Peter Selinger 2001-2017
</metadata>
<g transform="translate(0.000000,421.000000) scale(0.100000,-0.100000)"
fill="#000000" stroke="none">
<path d="M1395 3929 c-77 -5 -185 -12 -240 -16 -88 -7 -97 -10 -78 -21 40 -22
46 -47 27 -104 -19 -60 -15 -126 14 -192 l20 -44 -302 -5 c-425 -7 -458 -25
-46 -26 l314 -1 185 -182 c139 -138 186 -179 189 -165 3 13 234 -214 860 -845
1260 -1270 1258 -1268 1239 -1268 -9 0 -17 -7 -17 -15 0 -11 11 -15 41 -15
l42 0 -7 -61 c-3 -34 -6 -194 -6 -355 l0 -294 -1650 0 -1650 0 0 1510 c0 1336
-2 1510 -15 1510 -13 0 -15 -184 -15 -1595 0 -1411 2 -1595 15 -1595 9 0 15
-10 15 -26 0 -31 15 -61 48 -97 l26 -27 1752 0 1752 0 31 35 31 36 0 306 0
307 28 -26 c61 -56 67 -58 212 -58 92 0 140 4 148 12 9 9 12 385 12 1629 l0
1618 -26 20 c-15 12 -50 29 -78 38 -47 16 -147 18 -1391 19 -737 0 -1403 -3
-1480 -7z"/>
</g>
</svg>
